<?xml version="1.0" encoding="utf-8"?>
<!-- Generator: Adobe Illustrator 19.0.0, SVG Export Plug-In . SVG Version: 6.00 Build 0)  -->
<svg version="1.1" id="tree-dsl-svg-canvas-copy" xmlns="http://www.w3.org/2000/svg" xmlns:xlink="http://www.w3.org/1999/xlink"
	 x="0px" y="0px" viewBox="0 0 500 500" style="enable-background:new 0 0 500 500;" xml:space="preserve">
<style type="text/css">
	.st0{fill:#FFFFFF;}
	.st1{fill:none;stroke:#606060;}
	.st2{fill:#A6CEE3;stroke:#FFFFFF;stroke-width:1.0333;}
	.st3{fill:#1F78B4;stroke:#FFFFFF;stroke-width:1.0333;}
	.st4{fill:#B2DF8A;stroke:#FFFFFF;stroke-width:1.0333;}
	.st5{fill:#33A02C;stroke:#FFFFFF;stroke-width:1.0333;}
	.st6{fill:#FB9A99;stroke:#FFFFFF;stroke-width:1.0333;}
	.st7{fill:#E31A1C;stroke:#FFFFFF;stroke-width:1.0333;}
	.st8{fill:#FDBF6F;stroke:#FFFFFF;stroke-width:1.0333;}
	.st9{fill:#FF7F00;stroke:#FFFFFF;stroke-width:1.0333;}
	.st10{fill:#CAB2D6;stroke:#FFFFFF;stroke-width:1.0333;}
	.st11{fill:#6A3D9A;stroke:#FFFFFF;stroke-width:1.0333;}
</style>
<rect x="105" y="191" class="st0" width="605.9" height="87"/>
<g id="index-0-g" transform="translate(114.609375, 186)">
	<path id="linkindex-0toindex-1" class="st1" d="M7.8,24.8h15.5"/>
	<path id="linkindex-0toindex-2" class="st1" d="M7.8,24.8h38.8"/>
	<path id="linkindex-0toindex-3" class="st1" d="M7.8,24.8h69.8"/>
	<path id="linkindex-0toindex-4" class="st1" d="M7.8,24.8h93"/>
	<path id="linkindex-0toindex-5" class="st1" d="M7.8,24.8h108.5"/>
	<path id="linkindex-0toindex-6" class="st1" d="M7.8,24.8h131.8"/>
	<path id="linkindex-0toindex-7" class="st1" d="M7.8,24.8h162.8"/>
	<path id="linkindex-0toindex-8" class="st1" d="M7.8,24.8h186"/>
	<path id="linkindex-0toindex-9" class="st1" d="M7.8,24.8h201.5"/>
	<path id="linkindex-0toindex-10" class="st1" d="M7.8,24.8h217"/>
	<path id="linkindex-0toindex-11" class="st1" d="M7.8,24.8h248"/>
	<path id="linkindex-0toindex-12" class="st1" d="M7.8,24.8H310"/>
	<path id="linkindex-0toindex-13" class="st1" d="M7.8,24.8h341"/>
	<path id="linkindex-0toindex-14" class="st1" d="M7.8,24.8h379.8"/>
	<path id="linkindex-0toindex-15" class="st1" d="M7.8,24.8h418.5"/>
	<path id="linkindex-0toindex-16" class="st1" d="M7.8,24.8H465"/>
	<path id="linkindex-0toindex-17" class="st1" d="M7.8,24.8h496"/>
	<path id="linkindex-0toindex-18" class="st1" d="M7.8,24.8h511.5"/>
	<path id="linkindex-0toindex-19" class="st1" d="M7.8,24.8H558"/>
	<path id="linkindex-2toindex-20" class="st1" d="M46.5,24.8v24.8h-7.8v24.8"/>
	<path id="linkindex-2toindex-21" class="st1" d="M46.5,24.8v24.8h7.8v24.8"/>
	<path id="linkindex-3toindex-22" class="st1" d="M77.5,24.8v24.8h-7.8v24.8"/>
	<path id="linkindex-3toindex-23" class="st1" d="M77.5,24.8v24.8h7.8v24.8"/>
	<path id="linkindex-6toindex-24" class="st1" d="M139.5,24.8v24.8h-7.8v24.8"/>
	<path id="linkindex-6toindex-25" class="st1" d="M139.5,24.8v24.8h7.8v24.8"/>
	<path id="linkindex-7toindex-26" class="st1" d="M170.5,24.8v24.8h-7.8v24.8"/>
	<path id="linkindex-7toindex-27" class="st1" d="M170.5,24.8v24.8h7.8v24.8"/>
	<path id="linkindex-11toindex-28" class="st1" d="M255.8,24.8v24.8h-15.5v24.8"/>
	<path id="linkindex-11toindex-29" class="st1" d="M255.8,24.8v24.8l0,0v24.8"/>
	<path id="linkindex-11toindex-30" class="st1" d="M255.8,24.8v24.8h15.5v24.8"/>
	<path id="linkindex-12toindex-31" class="st1" d="M310,24.8v24.8h-23.2v24.8"/>
	<path id="linkindex-12toindex-32" class="st1" d="M310,24.8v24.8h-7.8v24.8"/>
	<path id="linkindex-12toindex-33" class="st1" d="M310,24.8v24.8h7.8v24.8"/>
	<path id="linkindex-12toindex-34" class="st1" d="M310,24.8v24.8h23.2v24.8"/>
	<path id="linkindex-14toindex-35" class="st1" d="M387.5,24.8v24.8h-23.2v24.8"/>
	<path id="linkindex-14toindex-36" class="st1" d="M387.5,24.8v24.8h-7.8v24.8"/>
	<path id="linkindex-14toindex-37" class="st1" d="M387.5,24.8v24.8h7.8v24.8"/>
	<path id="linkindex-14toindex-38" class="st1" d="M387.5,24.8v24.8h23.2v24.8"/>
	<path id="linkindex-16toindex-39" class="st1" d="M465,24.8v24.8h-23.2v24.8"/>
	<path id="linkindex-16toindex-40" class="st1" d="M465,24.8v24.8h-7.8v24.8"/>
	<path id="linkindex-16toindex-41" class="st1" d="M465,24.8v24.8h7.8v24.8"/>
	<path id="linkindex-16toindex-42" class="st1" d="M465,24.8v24.8h23.2v24.8"/>
	<path id="linkindex-19toindex-43" class="st1" d="M558,24.8v24.8h-23.2v24.8"/>
	<path id="linkindex-19toindex-44" class="st1" d="M558,24.8v24.8h-7.8v24.8"/>
	<path id="linkindex-19toindex-45" class="st1" d="M558,24.8v24.8h7.8v24.8"/>
	<path id="linkindex-19toindex-46" class="st1" d="M558,24.8v24.8h23.2v24.8"/>
	<path id="rootnodeindex-0" class="st2" d="M7.8,32.5C3.5,32.5,0,29,0,24.8S3.5,17,7.8,17s7.8,3.5,7.8,7.8S12,32.5,7.8,32.5
		L7.8,32.5z"/>
	<path id="rootnodeindex-1" class="st2" d="M23.2,32.5c-4.3,0-7.8-3.5-7.8-7.8S19,17,23.2,17s7.8,3.5,7.8,7.8S27.5,32.5,23.2,32.5z"
		/>
	<path id="rootnodeindex-2" class="st3" d="M46.5,32.5c-4.3,0-7.8-3.5-7.8-7.8s3.5-7.8,7.8-7.8s7.8,3.5,7.8,7.8S50.8,32.5,46.5,32.5
		z"/>
	<path id="rootnodeindex-3" class="st4" d="M77.5,32.5c-4.3,0-7.8-3.5-7.8-7.8s3.5-7.8,7.8-7.8s7.8,3.5,7.8,7.8S81.8,32.5,77.5,32.5
		z"/>
	<path id="rootnodeindex-4" class="st2" d="M100.8,32.5c-4.3,0-7.8-3.5-7.8-7.8s3.5-7.8,7.8-7.8s7.8,3.5,7.8,7.8
		S105,32.5,100.8,32.5z"/>
	<path id="rootnodeindex-5" class="st2" d="M116.2,32.5c-4.3,0-7.8-3.5-7.8-7.8s3.5-7.8,7.8-7.8s7.8,3.5,7.8,7.8
		S120.5,32.5,116.2,32.5z"/>
	<path id="rootnodeindex-6" class="st5" d="M139.5,32.5c-4.3,0-7.8-3.5-7.8-7.8s3.5-7.8,7.8-7.8s7.8,3.5,7.8,7.8
		S143.8,32.5,139.5,32.5z"/>
	<path id="rootnodeindex-7" class="st6" d="M170.5,32.5c-4.3,0-7.8-3.5-7.8-7.8s3.5-7.8,7.8-7.8s7.8,3.5,7.8,7.8
		S174.8,32.5,170.5,32.5z"/>
	<path id="rootnodeindex-8" class="st2" d="M193.8,32.5c-4.3,0-7.8-3.5-7.8-7.8s3.5-7.8,7.8-7.8s7.8,3.5,7.8,7.8
		S198,32.5,193.8,32.5z"/>
	<path id="rootnodeindex-9" class="st2" d="M209.2,32.5c-4.3,0-7.8-3.5-7.8-7.8s3.5-7.8,7.8-7.8s7.8,3.5,7.8,7.8
		S213.5,32.5,209.2,32.5z"/>
	<path id="rootnodeindex-10" class="st2" d="M224.8,32.5c-4.3,0-7.8-3.5-7.8-7.8s3.5-7.8,7.8-7.8s7.8,3.5,7.8,7.8
		S229,32.5,224.8,32.5z"/>
	<path id="rootnodeindex-11" class="st7" d="M255.8,32.5c-4.3,0-7.8-3.5-7.8-7.8s3.5-7.8,7.8-7.8s7.8,3.5,7.8,7.8
		S260,32.5,255.8,32.5z"/>
	<path id="rootnodeindex-12" class="st8" d="M310,32.5c-4.3,0-7.8-3.5-7.8-7.8s3.5-7.8,7.8-7.8s7.8,3.5,7.8,7.8S314.3,32.5,310,32.5
		z"/>
	<path id="rootnodeindex-13" class="st2" d="M348.8,32.5c-4.3,0-7.8-3.5-7.8-7.8s3.5-7.8,7.8-7.8s7.8,3.5,7.8,7.8
		S353,32.5,348.8,32.5z"/>
	<path id="rootnodeindex-14" class="st9" d="M387.5,32.5c-4.3,0-7.8-3.5-7.8-7.8s3.5-7.8,7.8-7.8s7.8,3.5,7.8,7.8
		S391.8,32.5,387.5,32.5z"/>
	<path id="rootnodeindex-15" class="st2" d="M426.2,32.5c-4.3,0-7.8-3.5-7.8-7.8s3.5-7.8,7.8-7.8s7.8,3.5,7.8,7.8
		S430.5,32.5,426.2,32.5z"/>
	<path id="rootnodeindex-16" class="st10" d="M465,32.5c-4.3,0-7.8-3.5-7.8-7.8s3.5-7.8,7.8-7.8s7.8,3.5,7.8,7.8
		S469.3,32.5,465,32.5z"/>
	<path id="rootnodeindex-17" class="st2" d="M503.8,32.5c-4.3,0-7.8-3.5-7.8-7.8s3.5-7.8,7.8-7.8s7.8,3.5,7.8,7.8
		S508,32.5,503.8,32.5z"/>
	<path id="rootnodeindex-18" class="st2" d="M519.2,32.5c-4.3,0-7.8-3.5-7.8-7.8s3.5-7.8,7.8-7.8s7.8,3.5,7.8,7.8
		S523.5,32.5,519.2,32.5z"/>
	<path id="rootnodeindex-19" class="st11" d="M558,32.5c-4.3,0-7.8-3.5-7.8-7.8s3.5-7.8,7.8-7.8s7.8,3.5,7.8,7.8
		S562.3,32.5,558,32.5z"/>
	<path id="rootnodeindex-20" class="st3" d="M38.8,82c-4.3,0-7.8-3.5-7.8-7.8s3.5-7.8,7.8-7.8s7.8,3.5,7.8,7.8S43,82,38.8,82z"/>
	<path id="rootnodeindex-21" class="st3" d="M54.2,82c-4.3,0-7.8-3.5-7.8-7.8s3.5-7.8,7.8-7.8S62,70,62,74.2S58.5,82,54.2,82z"/>
	<path id="rootnodeindex-22" class="st4" d="M69.8,82c-4.3,0-7.8-3.5-7.8-7.8s3.5-7.8,7.8-7.8s7.8,3.5,7.8,7.8S74,82,69.8,82z"/>
	<path id="rootnodeindex-23" class="st4" d="M85.2,82c-4.3,0-7.8-3.5-7.8-7.8s3.5-7.8,7.8-7.8S93,70,93,74.2S89.5,82,85.2,82z"/>
	<path id="rootnodeindex-24" class="st5" d="M131.8,82c-4.3,0-7.8-3.5-7.8-7.8s3.5-7.8,7.8-7.8c4.3,0,7.8,3.5,7.8,7.8
		S136,82,131.8,82z"/>
	<path id="rootnodeindex-25" class="st5" d="M147.2,82c-4.3,0-7.8-3.5-7.8-7.8s3.5-7.8,7.8-7.8s7.8,3.5,7.8,7.8S151.5,82,147.2,82z"
		/>
	<path id="rootnodeindex-26" class="st6" d="M162.8,82c-4.3,0-7.8-3.5-7.8-7.8s3.5-7.8,7.8-7.8s7.8,3.5,7.8,7.8S167,82,162.8,82z"/>
	<path id="rootnodeindex-27" class="st6" d="M178.2,82c-4.3,0-7.8-3.5-7.8-7.8s3.5-7.8,7.8-7.8s7.8,3.5,7.8,7.8S182.5,82,178.2,82z"
		/>
	<path id="rootnodeindex-28" class="st7" d="M240.2,82c-4.3,0-7.8-3.5-7.8-7.8s3.5-7.8,7.8-7.8s7.8,3.5,7.8,7.8S244.5,82,240.2,82z"
		/>
	<path id="rootnodeindex-29" class="st7" d="M255.8,82c-4.3,0-7.8-3.5-7.8-7.8s3.5-7.8,7.8-7.8s7.8,3.5,7.8,7.8S260,82,255.8,82z"/>
	<path id="rootnodeindex-30" class="st7" d="M271.2,82c-4.3,0-7.8-3.5-7.8-7.8s3.5-7.8,7.8-7.8s7.8,3.5,7.8,7.8S275.5,82,271.2,82z"
		/>
	<path id="rootnodeindex-31" class="st8" d="M286.8,82c-4.3,0-7.8-3.5-7.8-7.8s3.5-7.8,7.8-7.8s7.8,3.5,7.8,7.8S291,82,286.8,82z"/>
	<path id="rootnodeindex-32" class="st8" d="M302.2,82c-4.3,0-7.8-3.5-7.8-7.8s3.5-7.8,7.8-7.8s7.8,3.5,7.8,7.8S306.5,82,302.2,82z"
		/>
	<path id="rootnodeindex-33" class="st8" d="M317.8,82c-4.3,0-7.8-3.5-7.8-7.8s3.5-7.8,7.8-7.8s7.8,3.5,7.8,7.8S322,82,317.8,82z"/>
	<path id="rootnodeindex-34" class="st8" d="M333.2,82c-4.3,0-7.8-3.5-7.8-7.8s3.5-7.8,7.8-7.8s7.8,3.5,7.8,7.8S337.5,82,333.2,82z"
		/>
	<path id="rootnodeindex-35" class="st9" d="M364.2,82c-4.3,0-7.8-3.5-7.8-7.8s3.5-7.8,7.8-7.8s7.8,3.5,7.8,7.8S368.5,82,364.2,82z"
		/>
	<path id="rootnodeindex-36" class="st9" d="M379.8,82c-4.3,0-7.8-3.5-7.8-7.8s3.5-7.8,7.8-7.8s7.8,3.5,7.8,7.8S384,82,379.8,82z"/>
	<path id="rootnodeindex-37" class="st9" d="M395.2,82c-4.3,0-7.8-3.5-7.8-7.8s3.5-7.8,7.8-7.8s7.8,3.5,7.8,7.8S399.5,82,395.2,82z"
		/>
	<path id="rootnodeindex-38" class="st9" d="M410.8,82c-4.3,0-7.8-3.5-7.8-7.8s3.5-7.8,7.8-7.8s7.8,3.5,7.8,7.8S415,82,410.8,82z"/>
	<path id="rootnodeindex-39" class="st10" d="M441.8,82c-4.3,0-7.8-3.5-7.8-7.8s3.5-7.8,7.8-7.8s7.8,3.5,7.8,7.8S446,82,441.8,82z"
		/>
	<path id="rootnodeindex-40" class="st10" d="M457.2,82c-4.3,0-7.8-3.5-7.8-7.8s3.5-7.8,7.8-7.8s7.8,3.5,7.8,7.8S461.5,82,457.2,82z
		"/>
	<path id="rootnodeindex-41" class="st10" d="M472.8,82c-4.3,0-7.8-3.5-7.8-7.8s3.5-7.8,7.8-7.8l0,0c4.3,0,7.8,3.5,7.8,7.8
		S477,82,472.8,82z"/>
	<path id="rootnodeindex-42" class="st10" d="M488.2,82c-4.3,0-7.8-3.5-7.8-7.8s3.5-7.8,7.8-7.8s7.8,3.5,7.8,7.8S492.5,82,488.2,82z
		"/>
	<path id="rootnodeindex-43" class="st11" d="M534.8,82c-4.3,0-7.8-3.5-7.8-7.8s3.5-7.8,7.8-7.8s7.8,3.5,7.8,7.8S539,82,534.8,82z"
		/>
	<path id="rootnodeindex-44" class="st11" d="M550.2,82c-4.3,0-7.8-3.5-7.8-7.8s3.5-7.8,7.8-7.8s7.8,3.5,7.8,7.8S554.5,82,550.2,82z
		"/>
	<path id="rootnodeindex-45" class="st11" d="M565.8,82c-4.3,0-7.8-3.5-7.8-7.8s3.5-7.8,7.8-7.8s7.8,3.5,7.8,7.8S570,82,565.8,82z"
		/>
	<path id="rootnodeindex-46" class="st11" d="M581.2,82c-4.3,0-7.8-3.5-7.8-7.8s3.5-7.8,7.8-7.8s7.8,3.5,7.8,7.8S585.5,82,581.2,82z
		"/>
</g>
</svg>
